Coordinates
version=1
nRows=43
nColumns=12
inDegrees=yes

Units are S.I. units (second, meters, Newtons, ...)
Angles are in degrees

endheader
time	SC_y	SC_z	SC_x	AC_y	AC_z	AC_x	GH_y	GH_z	GH_yy	EL_x	PS_y
       0.0              -33.85          19.35          14.46          51.97         -3.162          15.11          -7.01        -0.2773          96.36          24.37          25.83
   0.03241              -33.84          19.35          14.47          51.97         -3.161           15.1         -7.013        -0.2754          96.37          24.38          25.84
   0.06482              -33.84          19.35          14.47          51.97          -3.16           15.1         -7.016        -0.2734          96.38          24.39          25.86
   0.09723              -33.84          19.36          14.47          51.97         -3.159          15.09         -7.019        -0.2713          96.39           24.4          25.87
    0.1296              -33.84          19.36          14.48          51.97         -3.158          15.09         -7.023        -0.2691           96.4          24.41          25.89
     0.162              -33.84          19.36          14.48          51.97         -3.157          15.08         -7.026        -0.2667          96.41          24.43           25.9
    0.1945              -33.83          19.36          14.48          51.97         -3.156          15.07          -7.03        -0.2641          96.42          24.44          25.92
    0.2269              -33.83          19.36          14.49          51.97         -3.154          15.07         -7.034        -0.2614          96.44          24.46          25.94
    0.2593              -33.83          19.36          14.49          51.97         -3.153          15.06         -7.039        -0.2584          96.45          24.47          25.96
    0.2917              -33.83          19.36           14.5          51.97         -3.151          15.05         -7.044        -0.2553          96.47          24.49          25.98
    0.3241              -33.82          19.36           14.5          51.96         -3.149          15.04         -7.049        -0.2519          96.48          24.51           26.0
    0.3565              -33.82          19.36          14.51          51.96         -3.148          15.03         -7.055        -0.2482           96.5          24.53          26.02
    0.3889              -33.82          19.36          14.51          51.96         -3.146          15.02         -7.061        -0.2443          96.52          24.55          26.05
    0.4213              -33.81          19.36          14.52          51.96         -3.144          15.01         -7.067        -0.2401          96.54          24.57          26.08
    0.4537              -33.81          19.36          14.53          51.96         -3.141           15.0         -7.074        -0.2355          96.56           24.6          26.11
    0.4861               -33.8          19.36          14.53          51.96         -3.139          14.99         -7.082        -0.2305          96.58          24.62          26.14
    0.5185               -33.8          19.36          14.54          51.96         -3.136          14.98          -7.09        -0.2251          96.61          24.65          26.17
    0.5509              -33.79          19.36          14.55          51.95         -3.133          14.96         -7.099        -0.2192          96.64          24.68          26.21
    0.5834              -33.79          19.37          14.56          51.95          -3.13          14.95         -7.109        -0.2127          96.67          24.72          26.25
    0.6158              -33.78          19.37          14.57          51.95         -3.126          14.93          -7.12        -0.2057           96.7          24.76           26.3
    0.6482              -33.77          19.37          14.58          51.95         -3.122          14.91         -7.132        -0.1979          96.74           24.8          26.35
    0.6806              -33.77          19.37          14.59          51.94         -3.118          14.89         -7.145        -0.1894          96.78          24.84          26.41
     0.713              -33.76          19.37          14.61          51.94         -3.113          14.86          -7.16          -0.18          96.82          24.89          26.47
    0.7454              -33.75          19.37          14.62          51.94         -3.108          14.84         -7.176        -0.1696          96.87          24.95          26.54
    0.7778              -33.74          19.38          14.64          51.93         -3.102          14.81         -7.193         -0.158          96.93          25.01          26.61
    0.8102              -33.72          19.38          14.66          51.93         -3.096          14.78         -7.213         -0.145          96.99          25.08           26.7
    0.8426              -33.71          19.38          14.68          51.92         -3.089          14.74         -7.236        -0.1306          97.06          25.16          26.79
     0.875               -33.7          19.38           14.7          51.92          -3.08           14.7         -7.261        -0.1143          97.14          25.25           26.9
    0.9074              -33.68          19.39          14.73          51.91         -3.071          14.65         -7.289       -0.09583          97.23          25.35          27.02
    0.9398              -33.66          19.39          14.76           51.9         -3.061           14.6         -7.321       -0.07492          97.33          25.46          27.16
    0.9723              -33.64          19.39           14.8          51.89         -3.049          14.54         -7.358       -0.05105          97.44          25.59          27.31
     1.005              -33.61           19.4          14.84          51.88         -3.035          14.47           -7.4       -0.02365          97.57          25.74          27.49
     1.037              -33.58           19.4          14.88          51.87         -3.019          14.39         -7.449       0.007976          97.72          25.91           27.7
     1.069              -33.55          19.41          14.94          51.86           -3.0           14.3         -7.505        0.04473           97.9          26.11          27.94
     1.102              -33.51          19.42           15.0          51.85         -2.979          14.19         -7.571        0.08773           98.1          26.34          28.22
     1.134              -33.46          19.43          15.08          51.83         -2.953          14.07         -7.649         0.1384          98.34          26.62          28.56
     1.167              -33.41          19.44          15.16          51.81         -2.923          13.92         -7.742         0.1987          98.63          26.94          28.95
     1.199              -33.34          19.45          15.27          51.78         -2.887          13.73         -7.853         0.2709          98.98          27.33          29.42
     1.232              -33.26          19.47           15.4          51.75         -2.843          13.52         -7.987         0.3582          99.39           27.8           30.0
     1.264              -33.16          19.48          15.56          51.71         -2.789          13.25         -8.152         0.4649           99.9          28.38          30.69
     1.296              -33.04          19.51          15.75          51.67         -2.723          12.92         -8.354         0.5967          100.5          29.09          31.56
     1.329              -32.89          19.54          15.99          51.61         -2.641          12.51         -8.607         0.7609          101.3          29.98          32.63
     1.361               -32.7          19.57          16.29          51.54         -2.537          11.99         -8.925         0.9678          102.3           31.1          33.99
